#tb 0: 1/15360
#tb 1: 1/44100
0,          0,          0,      512,   153600, 0x4ea8340c
1,          0,          0,     1024,     4096, 0x00000000
1,       1024,       1024,      446,     1784, 0x00000000
0,        512,        512,      512,   153600, 0xcdda3713
1,       1470,       1470,     1024,     4096, 0x00000000
1,       2494,       2494,      446,     1784, 0x00000000
0,       1024,       1024,      512,   153600, 0xb1fae74e
1,       2940,       2940,     1024,     4096, 0x00000000
1,       3964,       3964,      446,     1784, 0x00000000
0,       1536,       1536,      512,   153600, 0x63a8aa8c
1,       4410,       4410,     1024,     4096, 0x00000000
1,       5434,       5434,      446,     1784, 0x00000000
0,       2048,       2048,      512,   153600, 0x1ffb3581
1,       5880,       5880,     1024,     4096, 0x00000000
1,       6904,       6904,      446,     1784, 0x00000000
0,       2560,       2560,      512,   153600, 0xbc8a3294
1,       7350,       7350,     1024,     4096, 0x00000000
1,       8374,       8374,      446,     1784, 0x00000000
0,       3072,       3072,      512,   153600, 0xd1d98a95
1,       8820,       8820,     1024,     4096, 0x00000000
1,       9844,       9844,      446,     1784, 0x00000000
0,       3584,       3584,      512,   153600, 0xad7dbcb2
1,      10290,      10290,     1024,     4096, 0x00000000
1,      11314,      11314,      446,     1784, 0x00000000
0,       4096,       4096,      512,   153600, 0xc5b7be65
1,      11760,      11760,     1024,     4096, 0x00000000
1,      12784,      12784,      446,     1784, 0x00000000
0,       4608,       4608,      512,   153600, 0xa71e35ce
1,      13230,      13230,     1024,     4096, 0x00000000
1,      14254,      14254,      446,     1784, 0x00000000
0,       5120,       5120,      512,   153600, 0x8d3bf0b3
1,      14700,      14700,     1024,     4096, 0x00000000
1,      15724,      15724,      446,     1784, 0x00000000
0,       5632,       5632,      512,   153600, 0xc5d667ab
1,      16170,      16170,     1024,     4096, 0x00000000
1,      17194,      17194,      446,     1784, 0x00000000
0,       6144,       6144,      512,   153600, 0x686547f5
1,      17640,      17640,     1024,     4096, 0x00000000
1,      18664,      18664,      446,     1784, 0x00000000
0,       6656,       6656,      512,   153600, 0x9b6e025d
1,      19110,      19110,     1024,     4096, 0x00000000
1,      20134,      20134,      446,     1784, 0x00000000
0,       7168,       7168,      512,   153600, 0x2138b339
1,      20580,      20580,     1024,     4096, 0x00000000
1,      21604,      21604,      446,     1784, 0x00000000
0,       7680,       7680,      512,   153600, 0x6be20987
1,      22050,      22050,     1024,     4096, 0x00000000
1,      23074,      23074,      446,     1784, 0x00000000
0,       8192,       8192,      512,   153600, 0xca797b6e
1,      23520,      23520,     1024,     4096, 0x00000000
1,      24544,      24544,      446,     1784, 0x00000000
0,       8704,       8704,      512,   153600, 0x10a4e34f
1,      24990,      24990,     1024,     4096, 0x00000000
1,      26014,      26014,      446,     1784, 0x00000000
0,       9216,       9216,      512,   153600, 0xbcdb5ef6
1,      26460,      26460,     1024,     4096, 0x00000000
1,      27484,      27484,      446,     1784, 0x00000000
0,       9728,       9728,      512,   153600, 0xbefaead6
1,      27930,      27930,     1024,     4096, 0x00000000
1,      28954,      28954,      446,     1784, 0x00000000
0,      10240,      10240,      512,   153600, 0x68e62548
1,      29400,      29400,     1024,     4096, 0x00000000
1,      30424,      30424,      446,     1784, 0x00000000
0,      10752,      10752,      512,   153600, 0x726b1ce0
1,      30870,      30870,     1024,     4096, 0x00000000
1,      31894,      31894,      446,     1784, 0x00000000
0,      11264,      11264,      512,   153600, 0x624038df
1,      32340,      32340,     1024,     4096, 0x00000000
1,      33364,      33364,      446,     1784, 0x00000000
0,      11776,      11776,      512,   153600, 0x6c3dc462
1,      33810,      33810,     1024,     4096, 0x00000000
1,      34834,      34834,      446,     1784, 0x00000000
0,      12288,      12288,      512,   153600, 0x4a531df6
1,      35280,      35280,     1024,     4096, 0x00000000
1,      36304,      36304,      446,     1784, 0x00000000
0,      12800,      12800,      512,   153600, 0x4cb70d6c
1,      36750,      36750,     1024,     4096, 0x00000000
1,      37774,      37774,      446,     1784, 0x00000000
0,      13312,      13312,      512,   153600, 0x3c87c350
1,      38220,      38220,     1024,     4096, 0x00000000
1,      39244,      39244,      446,     1784, 0x00000000
0,      13824,      13824,      512,   153600, 0x2a68246c
1,      39690,      39690,     1024,     4096, 0x00000000
1,      40714,      40714,      446,     1784, 0x00000000
0,      14336,      14336,      512,   153600, 0x6ac4c5d3
1,      41160,      41160,     1024,     4096, 0x00000000
1,      42184,      42184,      446,     1784, 0x00000000
0,      14848,      14848,      512,   153600, 0xbbfaa0e7
1,      42630,      42630,     1024,     4096, 0x00000000
1,      43654,      43654,      446,     1784, 0x00000000
0,      15360,      15360,      512,   153600, 0x323cc932
1,      44100,      44100,     1024,     4096, 0x00000000
1,      45124,      45124,      446,     1784, 0x00000000
0,      15872,      15872,      512,   153600, 0x3797edbd
1,      45570,      45570,     1024,     4096, 0x00000000
1,      46594,      46594,      446,     1784, 0x00000000
0,      16384,      16384,      512,   153600, 0xfc11257b
1,      47040,      47040,     1024,     4096, 0x00000000
1,      48064,      48064,      446,     1784, 0x00000000
0,      16896,      16896,      512,   153600, 0x58f96c7d
1,      48510,      48510,     1024,     4096, 0x00000000
1,      49534,      49534,      446,     1784, 0x00000000
0,      17408,      17408,      512,   153600, 0xaaa5c4e3
1,      49980,      49980,     1024,     4096, 0x00000000
1,      51004,      51004,      446,     1784, 0x00000000
0,      17920,      17920,      512,   153600, 0xfcfb2f0e
1,      51450,      51450,     1024,     4096, 0x00000000
1,      52474,      52474,      446,     1784, 0x00000000
0,      18432,      18432,      512,   153600, 0xd283cc9a
1,      52920,      52920,     1024,     4096, 0x00000000
1,      53944,      53944,      446,     1784, 0x00000000
0,      18944,      18944,      512,   153600, 0x16a185a8
1,      54390,      54390,     1024,     4096, 0x00000000
1,      55414,      55414,      446,     1784, 0x00000000
0,      19456,      19456,      512,   153600, 0x274d428f
1,      55860,      55860,     1024,     4096, 0x00000000
1,      56884,      56884,      446,     1784, 0x00000000
0,      19968,      19968,      512,   153600, 0xce5103e5
1,      57330,      57330,     1024,     4096, 0x00000000
1,      58354,      58354,      446,     1784, 0x00000000
0,      20480,      20480,      512,   153600, 0x83198aea
1,      58800,      58800,     1024,     4096, 0x00000000
1,      59824,      59824,      446,     1784, 0x00000000
0,      20992,      20992,      512,   153600, 0x72eee215
1,      60270,      60270,     1024,     4096, 0x00000000
1,      61294,      61294,      446,     1784, 0x00000000
0,      21504,      21504,      512,   153600, 0x5799b665
1,      61740,      61740,     1024,     4096, 0x00000000
1,      62764,      62764,      446,     1784, 0x00000000
0,      22016,      22016,      512,   153600, 0x196d0d00
1,      63210,      63210,     1024,     4096, 0x00000000
1,      64234,      64234,      446,     1784, 0x00000000
0,      22528,      22528,      512,   153600, 0x354a300d
1,      64680,      64680,     1024,     4096, 0x00000000
1,      65704,      65704,      446,     1784, 0x00000000
0,      23040,      23040,      512,   153600, 0x160d3e0f
1,      66150,      66150,     1024,     4096, 0x00000000
1,      67174,      67174,      446,     1784, 0x00000000
0,      23552,      23552,      512,   153600, 0x943068b0
1,      67620,      67620,     1024,     4096, 0x00000000
1,      68644,      68644,      446,     1784, 0x00000000
0,      24064,      24064,      512,   153600, 0x93d8ade9
1,      69090,      69090,     1024,     4096, 0x00000000
1,      70114,      70114,      446,     1784, 0x00000000
0,      24576,      24576,      512,   153600, 0x1425284c
1,      70560,      70560,     1024,     4096, 0x00000000
1,      71584,      71584,      446,     1784, 0x00000000
0,      25088,      25088,      512,   153600, 0xfb7bbe0b
1,      72030,      72030,     1024,     4096, 0x00000000
1,      73054,      73054,      446,     1784, 0x00000000
0,      25600,      25600,      512,   153600, 0x424f5e46
1,      73500,      73500,     1024,     4096, 0x00000000
1,      74524,      74524,      446,     1784, 0x00000000
0,      26112,      26112,      512,   153600, 0xca9eda84
1,      74970,      74970,     1024,     4096, 0x00000000
1,      75994,      75994,      446,     1784, 0x00000000
0,      26624,      26624,      512,   153600, 0xd6e59ddd
1,      76440,      76440,     1024,     4096, 0x00000000
1,      77464,      77464,      446,     1784, 0x00000000
0,      27136,      27136,      512,   153600, 0xf790c75d
1,      77910,      77910,     1024,     4096, 0x00000000
1,      78934,      78934,      446,     1784, 0x00000000
0,      27648,      27648,      512,   153600, 0xc9630c8c
1,      79380,      79380,     1024,     4096, 0x00000000
1,      80404,      80404,      446,     1784, 0x00000000
0,      28160,      28160,      512,   153600, 0xda7f8a2f
1,      80850,      80850,     1024,     4096, 0x00000000
1,      81874,      81874,      446,     1784, 0x00000000
0,      28672,      28672,      512,   153600, 0x47fd2a5f
1,      82320,      82320,     1024,     4096, 0x00000000
1,      83344,      83344,      446,     1784, 0x00000000
0,      29184,      29184,      512,   153600, 0x7a89c47a
1,      83790,      83790,     1024,     4096, 0x00000000
1,      84814,      84814,      446,     1784, 0x00000000
0,      29696,      29696,      512,   153600, 0xe22c5eac
1,      85260,      85260,     1024,     4096, 0x00000000
1,      86284,      86284,      446,     1784, 0x00000000
0,      30208,      30208,      512,   153600, 0xa0640d5e
1,      86730,      86730,     1024,     4096, 0x00000000
1,      87754,      87754,      446,     1784, 0x00000000
0,      30720,      30720,      512,   153600, 0x6c9eea3f
1,      88200,      88200,     1024,     4096, 0x00000000
1,      89224,      89224,      446,     1784, 0x00000000
0,      31232,      31232,      512,   153600, 0x10d7e4e8
1,      89670,      89670,     1024,     4096, 0x00000000
1,      90694,      90694,      446,     1784, 0x00000000
0,      31744,      31744,      512,   153600, 0xd5263221
1,      91140,      91140,     1024,     4096, 0x00000000
1,      92164,      92164,      446,     1784, 0x00000000
0,      32256,      32256,      512,   153600, 0xbfd49397
1,      92610,      92610,     1024,     4096, 0x00000000
1,      93634,      93634,      446,     1784, 0x00000000
0,      32768,      32768,      512,   153600, 0x2f6a22e5
1,      94080,      94080,     1024,     4096, 0x00000000
1,      95104,      95104,      446,     1784, 0x00000000
0,      33280,      33280,      512,   153600, 0xc6edf530
1,      95550,      95550,     1024,     4096, 0x00000000
1,      96574,      96574,      446,     1784, 0x00000000
0,      33792,      33792,      512,   153600, 0xec92f0bc
1,      97020,      97020,     1024,     4096, 0x00000000
1,      98044,      98044,      446,     1784, 0x00000000
0,      34304,      34304,      512,   153600, 0xf1a52eac
1,      98490,      98490,     1024,     4096, 0x00000000
1,      99514,      99514,      446,     1784, 0x00000000
0,      34816,      34816,      512,   153600, 0xcb68a590
1,      99960,      99960,     1024,     4096, 0x00000000
1,     100984,     100984,      446,     1784, 0x00000000
0,      35328,      35328,      512,   153600, 0x77d25306
1,     101430,     101430,     1024,     4096, 0x00000000
1,     102454,     102454,      446,     1784, 0x00000000
0,      35840,      35840,      512,   153600, 0xd1dd37a6
1,     102900,     102900,     1024,     4096, 0x00000000
1,     103924,     103924,      446,     1784, 0x00000000
0,      36352,      36352,      512,   153600, 0xcc802a9a
1,     104370,     104370,     1024,     4096, 0x00000000
1,     105394,     105394,      446,     1784, 0x00000000
0,      36864,      36864,      512,   153600, 0x6190fc2d
1,     105840,     105840,     1024,     4096, 0x00000000
1,     106864,     106864,      446,     1784, 0x00000000
0,      37376,      37376,      512,   153600, 0xd5d52db7
1,     107310,     107310,     1024,     4096, 0x00000000
1,     108334,     108334,      446,     1784, 0x00000000
0,      37888,      37888,      512,   153600, 0x7c330e03
1,     108780,     108780,     1024,     4096, 0x00000000
1,     109804,     109804,      446,     1784, 0x00000000
0,      38400,      38400,      512,   153600, 0xf7bc666f
1,     110250,     110250,     1024,     4096, 0x00000000
1,     111274,     111274,      446,     1784, 0x00000000
0,      38912,      38912,      512,   153600, 0x945d0d90
1,     111720,     111720,     1024,     4096, 0x00000000
1,     112744,     112744,      446,     1784, 0x00000000
0,      39424,      39424,      512,   153600, 0x588733bd
1,     113190,     113190,     1024,     4096, 0x00000000
1,     114214,     114214,      446,     1784, 0x00000000
0,      39936,      39936,      512,   153600, 0x3f0b92dc
1,     114660,     114660,     1024,     4096, 0x00000000
1,     115684,     115684,      446,     1784, 0x00000000
0,      40448,      40448,      512,   153600, 0x6b07e96a
1,     116130,     116130,     1024,     4096, 0x00000000
1,     117154,     117154,      446,     1784, 0x00000000
0,      40960,      40960,      512,   153600, 0x94ba62b6
1,     117600,     117600,     1024,     4096, 0x00000000
1,     118624,     118624,      446,     1784, 0x00000000
0,      41472,      41472,      512,   153600, 0xd44f121b
1,     119070,     119070,     1024,     4096, 0x00000000
1,     120094,     120094,      446,     1784, 0x00000000
0,      41984,      41984,      512,   153600, 0x9cc89c71
1,     120540,     120540,     1024,     4096, 0x00000000
1,     121564,     121564,      446,     1784, 0x00000000
0,      42496,      42496,      512,   153600, 0x520d8ffc
1,     122010,     122010,     1024,     4096, 0x00000000
1,     123034,     123034,      446,     1784, 0x00000000
0,      43008,      43008,      512,   153600, 0xa8336959
1,     123480,     123480,     1024,     4096, 0x00000000
1,     124504,     124504,      446,     1784, 0x00000000
0,      43520,      43520,      512,   153600, 0x9da04961
1,     124950,     124950,     1024,     4096, 0x00000000
1,     125974,     125974,      446,     1784, 0x00000000
0,      44032,      44032,      512,   153600, 0x8f4131d9
1,     126420,     126420,     1024,     4096, 0x00000000
1,     127444,     127444,      446,     1784, 0x00000000
0,      44544,      44544,      512,   153600, 0x1631fafd
1,     127890,     127890,     1024,     4096, 0x00000000
1,     128914,     128914,      446,     1784, 0x00000000
0,      45056,      45056,      512,   153600, 0xf2e6e5b4
1,     129360,     129360,     1024,     4096, 0x00000000
1,     130384,     130384,      446,     1784, 0x00000000
0,      45568,      45568,      512,   153600, 0x9ad2e595
1,     130830,     130830,     1024,     4096, 0x00000000
1,     131854,     131854,      446,     1784, 0x00000000
